<svg t="1585984222616" class="icon" viewBox="0 0 1062 1024" version="1.1" xmlns="http://www.w3.org/2000/svg" p-id="1132"
     xmlns:xlink="http://www.w3.org/1999/xlink" width="207.421875" height="200">
    <defs>
        <style type="text/css"></style>
    </defs>
    <path d="M300.783797 387.460861c-76.890734 0-139.212152 62.062177-139.212151 138.641823 0 76.579646 62.321418 138.641823 139.212151 138.641822 76.877772 0 139.186228-62.062177 139.186228-138.641822 0-76.579646-62.308456-138.641823-139.186228-138.641823z m463.975697 0c-76.890734 0-139.19919 62.062177-139.19919 138.641823 0 76.579646 62.308456 138.641823 139.19919 138.641822s139.19919-62.062177 139.19919-138.641822c0-76.579646-62.308456-138.641823-139.19919-138.641823zM700.467848 1022.574177c-33.804962 0-63.643544-15.191494-84.188354-38.289823-20.54481 23.759392-50.37043 38.289823-84.175393 38.289823-33.804962 0-63.630582-15.191494-84.175392-38.289823-20.54481 23.759392-50.383392 38.289823-84.188355 38.289823-60.973367 0-110.695696-49.514937-110.695696-110.254987v-46.20962C83.384709 817.903797 1.192506 709.632 1.192506 536.005671 1.166582 244.852658 239.136405 7.854987 531.443038 7.854987s530.276456 237.010633 530.276456 528.150684c0 173.626329-82.205165 281.898127-251.891038 330.090937v46.20962c1.335089 61.401114-48.387241 110.254987-109.360608 110.254987zM764.759494 717.564759c106.055291 0 192.226835-85.834532 192.226835-191.462075 0-105.640506-86.171544-191.449114-192.226835-191.449114s-192.226835 85.808608-192.226836 191.449114c0 105.627544 86.171544 191.449114 192.226836 191.449113z m-463.975697 0c106.042329 0 192.226835-85.834532 192.226836-191.462075 0-105.640506-86.184506-191.449114-192.226836-191.449114-106.055291 0-192.226835 85.808608-192.226835 191.449114 0 105.627544 86.171544 191.449114 192.226835 191.449113z"
          p-id="1133" fill="#515151"></path>
</svg>